<mxfile host="app.diagrams.net" modified="2023-06-15T07:16:21.354Z" agent="Mozilla/5.0 (X11; Ubuntu; Linux x86_64; rv:109.0) Gecko/20100101 Firefox/112.0" version="21.4.0" etag="tOgOWRP3vkrtTkcvoZQO" type="github">
  <diagram name="Page-1" id="zJ3s267okTQiO5oR_WoL">
    <mxGraphModel>
      <root>
        <mxCell id="0" />
        <mxCell id="1" parent="0" />
      </root>
    </mxGraphModel>
  </diagram>
</mxfile>
